<mxfile host="app.diagrams.net" modified="2024-05-03T15:22:53.421Z" agent="Mozilla/5.0 (Windows NT 10.0; Win64; x64) AppleWebKit/537.36 (KHTML, like Gecko) Chrome/124.0.0.0 Safari/537.36" etag="c2nUSHcAwT7UXR40zMJ9" version="24.3.1" type="device">
  <diagram name="Seite-1" id="E2gfGtZA1w1zxJrn3HdN">
    <mxGraphModel dx="2389" dy="1923" grid="1" gridSize="10" guides="1" tooltips="1" connect="1" arrows="1" fold="1" page="1" pageScale="1" pageWidth="827" pageHeight="1169" math="0" shadow="0">
      <root>
        <mxCell id="0" />
        <mxCell id="1" parent="0" />
        <mxCell id="7BE0bbRn12wUS_fGmfLI-1" value="" style="endArrow=none;dashed=1;html=1;dashPattern=1 3;strokeWidth=2;rounded=0;" parent="1" edge="1">
          <mxGeometry width="50" height="50" relative="1" as="geometry">
            <mxPoint x="400" y="70" as="sourcePoint" />
            <mxPoint x="400" as="targetPoint" />
          </mxGeometry>
        </mxCell>
        <mxCell id="7BE0bbRn12wUS_fGmfLI-4" value="" style="edgeStyle=orthogonalEdgeStyle;rounded=0;orthogonalLoop=1;jettySize=auto;html=1;" parent="1" source="7BE0bbRn12wUS_fGmfLI-2" target="7BE0bbRn12wUS_fGmfLI-3" edge="1">
          <mxGeometry relative="1" as="geometry" />
        </mxCell>
        <mxCell id="7BE0bbRn12wUS_fGmfLI-2" value="&lt;font style=&quot;font-size: 14px;&quot;&gt;&lt;b&gt;Frontend&lt;/b&gt;&lt;/font&gt;" style="text;html=1;align=center;verticalAlign=middle;whiteSpace=wrap;rounded=0;" parent="1" vertex="1">
          <mxGeometry x="370" y="70" width="60" height="30" as="geometry" />
        </mxCell>
        <mxCell id="7BE0bbRn12wUS_fGmfLI-9" value="" style="edgeStyle=orthogonalEdgeStyle;rounded=0;orthogonalLoop=1;jettySize=auto;html=1;" parent="1" source="7BE0bbRn12wUS_fGmfLI-3" target="7BE0bbRn12wUS_fGmfLI-8" edge="1">
          <mxGeometry relative="1" as="geometry" />
        </mxCell>
        <mxCell id="7BE0bbRn12wUS_fGmfLI-3" value="Recherche" style="whiteSpace=wrap;html=1;fillColor=#fff2cc;strokeColor=#d6b656;" parent="1" vertex="1">
          <mxGeometry x="340" y="130" width="120" height="35" as="geometry" />
        </mxCell>
        <mxCell id="7BE0bbRn12wUS_fGmfLI-5" value="" style="endArrow=none;dashed=1;html=1;dashPattern=1 3;strokeWidth=2;rounded=0;exitX=1;exitY=0.5;exitDx=0;exitDy=0;entryX=0;entryY=0.5;entryDx=0;entryDy=0;" parent="1" source="7BE0bbRn12wUS_fGmfLI-3" target="7BE0bbRn12wUS_fGmfLI-6" edge="1">
          <mxGeometry width="50" height="50" relative="1" as="geometry">
            <mxPoint x="500" y="170" as="sourcePoint" />
            <mxPoint x="560" y="148" as="targetPoint" />
          </mxGeometry>
        </mxCell>
        <mxCell id="7BE0bbRn12wUS_fGmfLI-6" value="Welche initialen Fragen hast du dir gestellt" style="rounded=1;whiteSpace=wrap;html=1;fillColor=#ffe6cc;strokeColor=#d79b00;" parent="1" vertex="1">
          <mxGeometry x="550" y="130" width="110" height="40" as="geometry" />
        </mxCell>
        <mxCell id="7BE0bbRn12wUS_fGmfLI-13" value="" style="edgeStyle=orthogonalEdgeStyle;rounded=0;orthogonalLoop=1;jettySize=auto;html=1;" parent="1" source="7BE0bbRn12wUS_fGmfLI-8" target="7BE0bbRn12wUS_fGmfLI-12" edge="1">
          <mxGeometry relative="1" as="geometry" />
        </mxCell>
        <mxCell id="7BE0bbRn12wUS_fGmfLI-8" value="Auswahl erster Frameworks" style="whiteSpace=wrap;html=1;fillColor=#fff2cc;strokeColor=#d6b656;" parent="1" vertex="1">
          <mxGeometry x="157" y="130" width="120" height="35" as="geometry" />
        </mxCell>
        <mxCell id="7BE0bbRn12wUS_fGmfLI-10" value="" style="endArrow=none;dashed=1;html=1;dashPattern=1 3;strokeWidth=2;rounded=0;exitX=0;exitY=0.5;exitDx=0;exitDy=0;entryX=1;entryY=0.5;entryDx=0;entryDy=0;" parent="1" source="7BE0bbRn12wUS_fGmfLI-8" target="7BE0bbRn12wUS_fGmfLI-11" edge="1">
          <mxGeometry width="50" height="50" relative="1" as="geometry">
            <mxPoint x="70" y="178.75" as="sourcePoint" />
            <mxPoint x="-20" y="139.25" as="targetPoint" />
          </mxGeometry>
        </mxCell>
        <mxCell id="7BE0bbRn12wUS_fGmfLI-11" value="Initiale Frameworks" style="rounded=1;whiteSpace=wrap;html=1;fillColor=#ffe6cc;strokeColor=#d79b00;" parent="1" vertex="1">
          <mxGeometry x="-10" y="100" width="110" height="40" as="geometry" />
        </mxCell>
        <mxCell id="7BE0bbRn12wUS_fGmfLI-17" value="" style="edgeStyle=orthogonalEdgeStyle;rounded=0;orthogonalLoop=1;jettySize=auto;html=1;" parent="1" source="7BE0bbRn12wUS_fGmfLI-12" target="7BE0bbRn12wUS_fGmfLI-16" edge="1">
          <mxGeometry relative="1" as="geometry" />
        </mxCell>
        <mxCell id="7BE0bbRn12wUS_fGmfLI-12" value="Versionskontrolle" style="whiteSpace=wrap;html=1;fillColor=#fff2cc;strokeColor=#d6b656;" parent="1" vertex="1">
          <mxGeometry x="157" y="245" width="120" height="35" as="geometry" />
        </mxCell>
        <mxCell id="7BE0bbRn12wUS_fGmfLI-14" value="" style="endArrow=none;dashed=1;html=1;dashPattern=1 3;strokeWidth=2;rounded=0;exitX=0;exitY=0.5;exitDx=0;exitDy=0;entryX=1;entryY=0.5;entryDx=0;entryDy=0;" parent="1" source="7BE0bbRn12wUS_fGmfLI-12" target="7BE0bbRn12wUS_fGmfLI-15" edge="1">
          <mxGeometry width="50" height="50" relative="1" as="geometry">
            <mxPoint x="157" y="258" as="sourcePoint" />
            <mxPoint x="-20" y="249.25" as="targetPoint" />
          </mxGeometry>
        </mxCell>
        <mxCell id="7BE0bbRn12wUS_fGmfLI-15" value="Git" style="rounded=1;whiteSpace=wrap;html=1;fillColor=#ffe6cc;strokeColor=#d79b00;" parent="1" vertex="1">
          <mxGeometry x="-10" y="237.5" width="110" height="40" as="geometry" />
        </mxCell>
        <mxCell id="7BE0bbRn12wUS_fGmfLI-21" value="" style="edgeStyle=orthogonalEdgeStyle;rounded=0;orthogonalLoop=1;jettySize=auto;html=1;" parent="1" source="7BE0bbRn12wUS_fGmfLI-16" target="7BE0bbRn12wUS_fGmfLI-20" edge="1">
          <mxGeometry relative="1" as="geometry" />
        </mxCell>
        <mxCell id="7BE0bbRn12wUS_fGmfLI-16" value="VCS festlegen" style="whiteSpace=wrap;html=1;fillColor=#fff2cc;strokeColor=#d6b656;" parent="1" vertex="1">
          <mxGeometry x="357" y="245" width="120" height="35" as="geometry" />
        </mxCell>
        <mxCell id="7BE0bbRn12wUS_fGmfLI-18" value="" style="endArrow=none;dashed=1;html=1;dashPattern=1 3;strokeWidth=2;rounded=0;entryX=0;entryY=0.5;entryDx=0;entryDy=0;exitX=1;exitY=0.5;exitDx=0;exitDy=0;" parent="1" source="7BE0bbRn12wUS_fGmfLI-16" target="7BE0bbRn12wUS_fGmfLI-19" edge="1">
          <mxGeometry width="50" height="50" relative="1" as="geometry">
            <mxPoint x="500" y="260" as="sourcePoint" />
            <mxPoint x="570" y="258" as="targetPoint" />
          </mxGeometry>
        </mxCell>
        <mxCell id="7BE0bbRn12wUS_fGmfLI-19" value="GitLab" style="rounded=1;whiteSpace=wrap;html=1;fillColor=#ffe6cc;strokeColor=#d79b00;" parent="1" vertex="1">
          <mxGeometry x="570" y="247.5" width="100" height="30" as="geometry" />
        </mxCell>
        <mxCell id="7BE0bbRn12wUS_fGmfLI-23" value="" style="edgeStyle=orthogonalEdgeStyle;rounded=0;orthogonalLoop=1;jettySize=auto;html=1;" parent="1" source="7BE0bbRn12wUS_fGmfLI-20" target="7BE0bbRn12wUS_fGmfLI-22" edge="1">
          <mxGeometry relative="1" as="geometry" />
        </mxCell>
        <mxCell id="7BE0bbRn12wUS_fGmfLI-20" value="Frontend initialisieren" style="whiteSpace=wrap;html=1;fillColor=#fff2cc;strokeColor=#d6b656;" parent="1" vertex="1">
          <mxGeometry x="357" y="360" width="120" height="35" as="geometry" />
        </mxCell>
        <mxCell id="7BE0bbRn12wUS_fGmfLI-25" value="" style="edgeStyle=orthogonalEdgeStyle;rounded=0;orthogonalLoop=1;jettySize=auto;html=1;" parent="1" source="7BE0bbRn12wUS_fGmfLI-22" target="7BE0bbRn12wUS_fGmfLI-24" edge="1">
          <mxGeometry relative="1" as="geometry" />
        </mxCell>
        <mxCell id="7BE0bbRn12wUS_fGmfLI-22" value="Login-Page" style="whiteSpace=wrap;html=1;fillColor=#fff2cc;strokeColor=#d6b656;" parent="1" vertex="1">
          <mxGeometry x="157" y="360" width="120" height="35" as="geometry" />
        </mxCell>
        <mxCell id="7BE0bbRn12wUS_fGmfLI-27" value="" style="edgeStyle=orthogonalEdgeStyle;rounded=0;orthogonalLoop=1;jettySize=auto;html=1;" parent="1" source="7BE0bbRn12wUS_fGmfLI-24" target="7BE0bbRn12wUS_fGmfLI-26" edge="1">
          <mxGeometry relative="1" as="geometry" />
        </mxCell>
        <mxCell id="7BE0bbRn12wUS_fGmfLI-24" value="Router Endpoints" style="whiteSpace=wrap;html=1;fillColor=#fff2cc;strokeColor=#d6b656;" parent="1" vertex="1">
          <mxGeometry x="157" y="475" width="120" height="35" as="geometry" />
        </mxCell>
        <mxCell id="7BE0bbRn12wUS_fGmfLI-29" value="" style="edgeStyle=orthogonalEdgeStyle;rounded=0;orthogonalLoop=1;jettySize=auto;html=1;" parent="1" source="7BE0bbRn12wUS_fGmfLI-26" target="7BE0bbRn12wUS_fGmfLI-28" edge="1">
          <mxGeometry relative="1" as="geometry" />
        </mxCell>
        <mxCell id="7BE0bbRn12wUS_fGmfLI-26" value="Navigation" style="whiteSpace=wrap;html=1;fillColor=#fff2cc;strokeColor=#d6b656;" parent="1" vertex="1">
          <mxGeometry x="357" y="475" width="120" height="35" as="geometry" />
        </mxCell>
        <mxCell id="PCQOfplQpb37sercBIT6-8" style="edgeStyle=orthogonalEdgeStyle;rounded=0;orthogonalLoop=1;jettySize=auto;html=1;" edge="1" parent="1" source="7BE0bbRn12wUS_fGmfLI-28" target="PCQOfplQpb37sercBIT6-7">
          <mxGeometry relative="1" as="geometry" />
        </mxCell>
        <mxCell id="7BE0bbRn12wUS_fGmfLI-28" value="Overlay MenÃ¼" style="whiteSpace=wrap;html=1;fillColor=#fff2cc;strokeColor=#d6b656;" parent="1" vertex="1">
          <mxGeometry x="357" y="590" width="120" height="35" as="geometry" />
        </mxCell>
        <mxCell id="PCQOfplQpb37sercBIT6-1" value="Auswahl Bibliotheken" style="rounded=1;whiteSpace=wrap;html=1;fillColor=#ffe6cc;strokeColor=#d79b00;" vertex="1" parent="1">
          <mxGeometry x="-10" y="150" width="110" height="40" as="geometry" />
        </mxCell>
        <mxCell id="PCQOfplQpb37sercBIT6-3" value="" style="endArrow=none;dashed=1;html=1;dashPattern=1 3;strokeWidth=2;rounded=0;exitX=0;exitY=0.5;exitDx=0;exitDy=0;entryX=1;entryY=0.5;entryDx=0;entryDy=0;" edge="1" parent="1" source="7BE0bbRn12wUS_fGmfLI-8" target="PCQOfplQpb37sercBIT6-1">
          <mxGeometry width="50" height="50" relative="1" as="geometry">
            <mxPoint x="167" y="158" as="sourcePoint" />
            <mxPoint x="110" y="130" as="targetPoint" />
          </mxGeometry>
        </mxCell>
        <mxCell id="PCQOfplQpb37sercBIT6-4" value="Nav Bar" style="rounded=1;whiteSpace=wrap;html=1;fillColor=#ffe6cc;strokeColor=#d79b00;" vertex="1" parent="1">
          <mxGeometry x="570" y="477.5" width="100" height="30" as="geometry" />
        </mxCell>
        <mxCell id="PCQOfplQpb37sercBIT6-5" value="" style="endArrow=none;dashed=1;html=1;dashPattern=1 3;strokeWidth=2;rounded=0;entryX=0;entryY=0.5;entryDx=0;entryDy=0;exitX=1;exitY=0.5;exitDx=0;exitDy=0;" edge="1" parent="1" source="7BE0bbRn12wUS_fGmfLI-26" target="PCQOfplQpb37sercBIT6-4">
          <mxGeometry width="50" height="50" relative="1" as="geometry">
            <mxPoint x="487" y="273" as="sourcePoint" />
            <mxPoint x="580" y="273" as="targetPoint" />
          </mxGeometry>
        </mxCell>
        <mxCell id="PCQOfplQpb37sercBIT6-14" style="edgeStyle=orthogonalEdgeStyle;rounded=0;orthogonalLoop=1;jettySize=auto;html=1;" edge="1" parent="1" source="PCQOfplQpb37sercBIT6-7" target="PCQOfplQpb37sercBIT6-13">
          <mxGeometry relative="1" as="geometry" />
        </mxCell>
        <mxCell id="PCQOfplQpb37sercBIT6-7" value="Interpreter" style="whiteSpace=wrap;html=1;fillColor=#fff2cc;strokeColor=#d6b656;" vertex="1" parent="1">
          <mxGeometry x="157" y="590" width="120" height="35" as="geometry" />
        </mxCell>
        <mxCell id="PCQOfplQpb37sercBIT6-9" value="Neues Protokoll" style="rounded=1;whiteSpace=wrap;html=1;fillColor=#ffe6cc;strokeColor=#d79b00;" vertex="1" parent="1">
          <mxGeometry x="-10" y="590" width="100" height="30" as="geometry" />
        </mxCell>
        <mxCell id="PCQOfplQpb37sercBIT6-10" value="" style="endArrow=none;dashed=1;html=1;dashPattern=1 3;strokeWidth=2;rounded=0;exitX=0;exitY=0.5;exitDx=0;exitDy=0;entryX=1;entryY=0.5;entryDx=0;entryDy=0;" edge="1" parent="1" source="PCQOfplQpb37sercBIT6-7" target="PCQOfplQpb37sercBIT6-9">
          <mxGeometry width="50" height="50" relative="1" as="geometry">
            <mxPoint x="167" y="273" as="sourcePoint" />
            <mxPoint x="110" y="268" as="targetPoint" />
          </mxGeometry>
        </mxCell>
        <mxCell id="PCQOfplQpb37sercBIT6-11" value="Protokoll in Bearbeitung" style="rounded=1;whiteSpace=wrap;html=1;fillColor=#ffe6cc;strokeColor=#d79b00;" vertex="1" parent="1">
          <mxGeometry x="-10" y="625" width="100" height="30" as="geometry" />
        </mxCell>
        <mxCell id="PCQOfplQpb37sercBIT6-12" value="" style="endArrow=none;dashed=1;html=1;dashPattern=1 3;strokeWidth=2;rounded=0;exitX=0;exitY=0.5;exitDx=0;exitDy=0;entryX=1;entryY=0.5;entryDx=0;entryDy=0;" edge="1" parent="1" source="PCQOfplQpb37sercBIT6-7" target="PCQOfplQpb37sercBIT6-11">
          <mxGeometry width="50" height="50" relative="1" as="geometry">
            <mxPoint x="167" y="618" as="sourcePoint" />
            <mxPoint x="100" y="615" as="targetPoint" />
          </mxGeometry>
        </mxCell>
        <mxCell id="PCQOfplQpb37sercBIT6-18" style="edgeStyle=orthogonalEdgeStyle;rounded=0;orthogonalLoop=1;jettySize=auto;html=1;" edge="1" parent="1" source="PCQOfplQpb37sercBIT6-13" target="PCQOfplQpb37sercBIT6-17">
          <mxGeometry relative="1" as="geometry" />
        </mxCell>
        <mxCell id="PCQOfplQpb37sercBIT6-13" value="Design Entscheidung" style="whiteSpace=wrap;html=1;fillColor=#fff2cc;strokeColor=#d6b656;" vertex="1" parent="1">
          <mxGeometry x="157" y="710" width="120" height="35" as="geometry" />
        </mxCell>
        <mxCell id="PCQOfplQpb37sercBIT6-21" style="edgeStyle=orthogonalEdgeStyle;rounded=0;orthogonalLoop=1;jettySize=auto;html=1;" edge="1" parent="1" source="PCQOfplQpb37sercBIT6-17" target="PCQOfplQpb37sercBIT6-19">
          <mxGeometry relative="1" as="geometry" />
        </mxCell>
        <mxCell id="PCQOfplQpb37sercBIT6-17" value="Benachrichtigungen&amp;nbsp;" style="whiteSpace=wrap;html=1;fillColor=#fff2cc;strokeColor=#d6b656;" vertex="1" parent="1">
          <mxGeometry x="357" y="710" width="120" height="35" as="geometry" />
        </mxCell>
        <mxCell id="PCQOfplQpb37sercBIT6-22" style="edgeStyle=orthogonalEdgeStyle;rounded=0;orthogonalLoop=1;jettySize=auto;html=1;" edge="1" parent="1" source="PCQOfplQpb37sercBIT6-19" target="PCQOfplQpb37sercBIT6-20">
          <mxGeometry relative="1" as="geometry" />
        </mxCell>
        <mxCell id="PCQOfplQpb37sercBIT6-19" value="Archiv" style="whiteSpace=wrap;html=1;fillColor=#fff2cc;strokeColor=#d6b656;" vertex="1" parent="1">
          <mxGeometry x="357" y="830" width="120" height="35" as="geometry" />
        </mxCell>
        <mxCell id="PCQOfplQpb37sercBIT6-24" style="edgeStyle=orthogonalEdgeStyle;rounded=0;orthogonalLoop=1;jettySize=auto;html=1;" edge="1" parent="1" source="PCQOfplQpb37sercBIT6-20" target="PCQOfplQpb37sercBIT6-23">
          <mxGeometry relative="1" as="geometry" />
        </mxCell>
        <mxCell id="PCQOfplQpb37sercBIT6-20" value="Interpreter" style="whiteSpace=wrap;html=1;fillColor=#fff2cc;strokeColor=#d6b656;" vertex="1" parent="1">
          <mxGeometry x="157" y="830" width="120" height="35" as="geometry" />
        </mxCell>
        <mxCell id="PCQOfplQpb37sercBIT6-26" style="edgeStyle=orthogonalEdgeStyle;rounded=0;orthogonalLoop=1;jettySize=auto;html=1;" edge="1" parent="1" source="PCQOfplQpb37sercBIT6-23" target="PCQOfplQpb37sercBIT6-25">
          <mxGeometry relative="1" as="geometry" />
        </mxCell>
        <mxCell id="PCQOfplQpb37sercBIT6-23" value="ZusammenfÃ¼hrung Front- &amp;amp; Backend" style="whiteSpace=wrap;html=1;fillColor=#e1d5e7;strokeColor=#9673a6;" vertex="1" parent="1">
          <mxGeometry x="157" y="950" width="120" height="35" as="geometry" />
        </mxCell>
        <mxCell id="PCQOfplQpb37sercBIT6-28" style="edgeStyle=orthogonalEdgeStyle;rounded=0;orthogonalLoop=1;jettySize=auto;html=1;" edge="1" parent="1" source="PCQOfplQpb37sercBIT6-25" target="PCQOfplQpb37sercBIT6-27">
          <mxGeometry relative="1" as="geometry" />
        </mxCell>
        <mxCell id="PCQOfplQpb37sercBIT6-25" value="Statistiken" style="whiteSpace=wrap;html=1;fillColor=#fff2cc;strokeColor=#d6b656;" vertex="1" parent="1">
          <mxGeometry x="357" y="950" width="120" height="35" as="geometry" />
        </mxCell>
        <mxCell id="PCQOfplQpb37sercBIT6-27" value="Endpunkte" style="whiteSpace=wrap;html=1;fillColor=#fff2cc;strokeColor=#d6b656;" vertex="1" parent="1">
          <mxGeometry x="357" y="1070" width="120" height="35" as="geometry" />
        </mxCell>
      </root>
    </mxGraphModel>
  </diagram>
</mxfile>
